<svg xmlns="http://www.w3.org/2000/svg" xmlns:xlink="http://www.w3.org/1999/xlink" width="1500" zoomAndPan="magnify" viewBox="0 0 1125 374.999991" height="500" preserveAspectRatio="xMidYMid meet" version="1.0"><defs><g/><clipPath id="c6eb2e87fa"><path d="M 84.507812 6.605469 L 274.257812 6.605469 L 274.257812 242 L 84.507812 242 Z M 84.507812 6.605469 " clip-rule="nonzero"/></clipPath><clipPath id="3db40e13bd"><path d="M 97 124 L 180 124 L 180 358.355469 L 97 358.355469 Z M 97 124 " clip-rule="nonzero"/></clipPath></defs><rect x="-112.5" width="1350" fill="#ffffff" y="-37.499999" height="449.999989" fill-opacity="1"/><rect x="-112.5" width="1350" fill="#ffffff" y="-37.499999" height="449.999989" fill-opacity="1"/><g clip-path="url(#c6eb2e87fa)"><path fill="#004aad" d="M 192.316406 116.101562 C 192.296875 116.074219 192.125 115.964844 191.804688 115.773438 C 159.742188 96.992188 124.082031 76.351562 84.828125 53.855469 C 84.683594 53.777344 84.609375 53.652344 84.609375 53.488281 C 84.609375 53.320312 84.683594 53.195312 84.828125 53.117188 L 164.769531 7.066406 C 165.351562 6.730469 165.933594 6.730469 166.515625 7.066406 L 273.261719 68.613281 C 273.535156 68.773438 273.75 68.992188 273.90625 69.265625 C 274.066406 69.539062 274.144531 69.835938 274.144531 70.152344 L 274.214844 193.824219 C 274.214844 194.320312 274.003906 194.683594 273.582031 194.925781 L 193.691406 241.066406 C 193.59375 241.125 193.488281 241.152344 193.375 241.152344 C 193.265625 241.152344 193.160156 241.121094 193.058594 241.066406 C 192.960938 241.007812 192.882812 240.929688 192.828125 240.832031 C 192.769531 240.734375 192.738281 240.628906 192.738281 240.511719 C 192.605469 201.0625 192.640625 160.195312 192.839844 117.910156 C 192.847656 117.25 192.671875 116.648438 192.316406 116.101562 Z M 192.316406 116.101562 " fill-opacity="1" fill-rule="nonzero"/></g><g clip-path="url(#3db40e13bd)"><path fill="#004aad" d="M 97.628906 311.503906 L 97.648438 171.421875 C 97.644531 171.160156 97.757812 170.964844 97.988281 170.835938 L 178.226562 124.558594 C 178.328125 124.5 178.441406 124.472656 178.558594 124.472656 C 178.675781 124.472656 178.789062 124.503906 178.890625 124.566406 C 178.992188 124.625 179.074219 124.707031 179.132812 124.8125 C 179.191406 124.914062 179.222656 125.027344 179.21875 125.144531 L 179.179688 357.8125 C 179.179688 357.929688 179.152344 358.042969 179.09375 358.144531 C 179.035156 358.25 178.953125 358.332031 178.851562 358.390625 C 178.746094 358.453125 178.636719 358.480469 178.515625 358.484375 C 178.398438 358.484375 178.289062 358.457031 178.183594 358.398438 L 97.964844 312.089844 C 97.738281 311.960938 97.625 311.765625 97.628906 311.503906 Z M 97.628906 311.503906 " fill-opacity="1" fill-rule="nonzero"/></g><g fill="#000000" fill-opacity="1"><g transform="translate(296.433628, 255.089938)"><g><path d="M 209.703125 -157.921875 C 218.554688 -147.566406 223.570312 -136.1875 224.75 -123.78125 C 225.9375 -111.375 224.316406 -99.128906 219.890625 -87.046875 C 215.472656 -74.972656 209.382812 -63.972656 201.625 -54.046875 C 195.144531 -46.066406 187.914062 -38.835938 179.9375 -32.359375 C 171.957031 -25.890625 163.4375 -20.28125 154.375 -15.53125 C 146.820312 -11.4375 138.515625 -7.769531 129.453125 -4.53125 C 120.390625 -1.289062 111.4375 -0.425781 102.59375 -1.9375 C 95.25 -3.019531 88.988281 -6.363281 83.8125 -11.96875 C 77.125 12.40625 71.84375 37 67.96875 61.8125 C 67.53125 63.75 66.394531 64.609375 64.5625 64.390625 C 62.726562 64.179688 60.734375 63.265625 58.578125 61.640625 C 56.421875 60.023438 54.585938 58.082031 53.078125 55.8125 C 51.566406 53.550781 50.914062 51.453125 51.125 49.515625 C 61.914062 -16.285156 81.335938 -79.5 109.390625 -140.125 C 110.253906 -142.28125 111.707031 -143.195312 113.75 -142.875 C 115.800781 -142.550781 117.90625 -141.523438 120.0625 -139.796875 C 122.21875 -138.078125 123.941406 -136.140625 125.234375 -133.984375 C 126.535156 -131.828125 126.753906 -129.882812 125.890625 -128.15625 C 117.910156 -110.675781 110.578125 -92.769531 103.890625 -74.4375 C 106.691406 -76.59375 109.707031 -78.535156 112.9375 -80.265625 C 114.445312 -81.117188 116.28125 -81.003906 118.4375 -79.921875 C 120.601562 -78.847656 122.546875 -77.234375 124.265625 -75.078125 C 125.992188 -72.921875 127.070312 -70.765625 127.5 -68.609375 C 127.9375 -66.453125 127.078125 -64.726562 124.921875 -63.4375 C 118.015625 -59.757812 111.320312 -54.414062 104.84375 -47.40625 C 98.375 -40.394531 94.492188 -32.789062 93.203125 -24.59375 C 92.773438 -22.007812 92.9375 -20.390625 93.6875 -19.734375 C 94.445312 -19.085938 96.007812 -18.660156 98.375 -18.453125 C 100.101562 -18.453125 101.882812 -18.503906 103.71875 -18.609375 C 105.550781 -18.710938 107.332031 -18.984375 109.0625 -19.421875 C 112.945312 -20.285156 116.722656 -21.363281 120.390625 -22.65625 C 124.054688 -23.945312 127.613281 -25.347656 131.0625 -26.859375 C 144.875 -32.898438 157.765625 -41.046875 169.734375 -51.296875 C 181.710938 -61.546875 191.15625 -73.359375 198.0625 -86.734375 C 201.289062 -92.984375 203.820312 -99.722656 205.65625 -106.953125 C 207.5 -114.179688 208.203125 -121.351562 207.765625 -128.46875 C 207.335938 -135.59375 205.285156 -142.117188 201.609375 -148.046875 C 197.941406 -153.984375 192.335938 -158.679688 184.796875 -162.140625 C 174.867188 -166.878906 164.398438 -168.976562 153.390625 -168.4375 C 142.390625 -167.90625 131.492188 -165.859375 120.703125 -162.296875 C 109.921875 -158.734375 99.890625 -154.90625 90.609375 -150.8125 C 83.492188 -147.570312 76.695312 -143.957031 70.21875 -139.96875 C 63.75 -135.976562 57.492188 -131.5 51.453125 -126.53125 C 45.410156 -121.351562 40.125 -115.960938 35.59375 -110.359375 C 34.519531 -109.066406 33.441406 -107.664062 32.359375 -106.15625 C 31.285156 -104.644531 30.207031 -103.132812 29.125 -101.625 C 28.90625 -100.96875 28.148438 -99.5625 26.859375 -97.40625 C 25.566406 -95.25 25.03125 -94.0625 25.25 -93.84375 C 27.613281 -89.96875 28.09375 -87.21875 26.6875 -85.59375 C 25.289062 -83.976562 23.132812 -83.492188 20.21875 -84.140625 C 17.3125 -84.785156 14.882812 -86.617188 12.9375 -89.640625 C 9.0625 -96.117188 8.203125 -102.484375 10.359375 -108.734375 C 12.515625 -114.992188 16.070312 -120.875 21.03125 -126.375 C 26 -131.875 30.75 -136.675781 35.28125 -140.78125 C 44.125 -148.332031 53.664062 -154.800781 63.90625 -160.1875 C 74.15625 -165.582031 84.566406 -170.332031 95.140625 -174.4375 C 108.085938 -179.175781 121.519531 -182.351562 135.4375 -183.96875 C 149.351562 -185.59375 162.78125 -184.515625 175.71875 -180.734375 C 188.664062 -176.960938 199.992188 -169.359375 209.703125 -157.921875 Z M 209.703125 -157.921875 "/></g></g></g><g fill="#000000" fill-opacity="1"><g transform="translate(531.057177, 255.089938)"><g><path d="M 59.875 -42.390625 C 60.945312 -40.671875 61.320312 -38.890625 61 -37.046875 C 60.675781 -35.210938 59.328125 -34.191406 56.953125 -33.984375 C 55.234375 -33.984375 53.617188 -34.46875 52.109375 -35.4375 C 50.597656 -36.40625 49.191406 -37.644531 47.890625 -39.15625 C 45.734375 -39.15625 42.820312 -37.859375 39.15625 -35.265625 C 35.488281 -32.679688 33.007812 -30.957031 31.71875 -30.09375 C 29.34375 -28.375 27.078125 -26.488281 24.921875 -24.4375 C 22.765625 -22.382812 20.609375 -20.28125 18.453125 -18.125 C 9.171875 -8.195312 1.832031 2.585938 -3.5625 14.234375 C -4.851562 17.046875 -7.007812 17.800781 -10.03125 16.5 C -13.050781 15.207031 -15.691406 13.050781 -17.953125 10.03125 C -20.222656 7.007812 -20.925781 4.421875 -20.0625 2.265625 C -16.613281 -7.441406 -13 -16.988281 -9.21875 -26.375 C -5.445312 -35.757812 -1.832031 -45.304688 1.625 -55.015625 C 2.476562 -57.171875 4.09375 -57.976562 6.46875 -57.4375 C 8.84375 -56.90625 11.21875 -55.554688 13.59375 -53.390625 C 15.96875 -51.234375 17.585938 -48.972656 18.453125 -46.609375 C 25.785156 -52.210938 33.171875 -55.285156 40.609375 -55.828125 C 48.054688 -56.367188 54.476562 -51.890625 59.875 -42.390625 Z M 59.875 -42.390625 "/></g></g></g><g fill="#000000" fill-opacity="1"><g transform="translate(609.696487, 255.089938)"><g><path d="M 61.171875 -40.125 C 63.109375 -41.851562 65.316406 -42.234375 67.796875 -41.265625 C 70.273438 -40.296875 72.050781 -38.675781 73.125 -36.40625 C 74.207031 -34.144531 73.78125 -32.148438 71.84375 -30.421875 C 66.664062 -26.109375 61.328125 -21.847656 55.828125 -17.640625 C 50.328125 -13.429688 44.769531 -9.382812 39.15625 -5.5 C 34.40625 -2.476562 29.441406 0.644531 24.265625 3.875 C 19.085938 7.113281 13.804688 9.378906 8.421875 10.671875 C 4.097656 11.328125 0.0507812 10.679688 -3.71875 8.734375 C -7.5 6.796875 -10.570312 4.046875 -12.9375 0.484375 C -15.3125 -3.078125 -16.5 -7.015625 -16.5 -11.328125 C -16.71875 -18.441406 -14.773438 -25.828125 -10.671875 -33.484375 C -6.578125 -41.148438 -2.804688 -48.003906 0.640625 -54.046875 C 1.941406 -55.984375 3.671875 -56.734375 5.828125 -56.296875 C 7.984375 -55.867188 10.140625 -54.789062 12.296875 -53.0625 C 14.453125 -51.34375 16.066406 -49.40625 17.140625 -47.25 C 18.222656 -45.09375 18.332031 -43.257812 17.46875 -41.75 C 14.664062 -37 12.078125 -32.195312 9.703125 -27.34375 C 7.335938 -22.488281 5.179688 -17.582031 3.234375 -12.625 C 2.804688 -11.320312 2.269531 -9.921875 1.625 -8.421875 C 6.15625 -9.066406 12.085938 -11.113281 19.421875 -14.5625 C 26.753906 -18.007812 34.25 -22.050781 41.90625 -26.6875 C 49.5625 -31.332031 55.984375 -35.8125 61.171875 -40.125 Z M 32.03125 -73.78125 C 30.738281 -71.195312 28.53125 -70.550781 25.40625 -71.84375 C 22.28125 -73.132812 19.53125 -75.238281 17.15625 -78.15625 C 14.78125 -81.070312 14.128906 -83.710938 15.203125 -86.078125 C 17.148438 -89.960938 18.554688 -92.820312 19.421875 -94.65625 C 20.285156 -96.488281 20.71875 -97.40625 20.71875 -97.40625 C 22.007812 -99.351562 23.734375 -100.164062 25.890625 -99.84375 C 28.046875 -99.519531 30.148438 -98.492188 32.203125 -96.765625 C 34.253906 -95.035156 35.867188 -93.09375 37.046875 -90.9375 C 38.234375 -88.78125 38.398438 -86.835938 37.546875 -85.109375 C 37.546875 -85.109375 37.21875 -84.40625 36.5625 -83 C 35.914062 -81.601562 34.40625 -78.53125 32.03125 -73.78125 Z M 32.03125 -73.78125 "/></g></g></g><g fill="#000000" fill-opacity="1"><g transform="translate(673.125776, 255.089938)"><g><path d="M 59.21875 -43.359375 C 61.8125 -44.222656 64.023438 -43.738281 65.859375 -41.90625 C 67.691406 -40.070312 68.710938 -37.859375 68.921875 -35.265625 C 69.140625 -32.679688 67.847656 -30.851562 65.046875 -29.78125 C 52.753906 -25.03125 41.644531 -18.769531 31.71875 -11 C 33.226562 -6.257812 33.660156 -1.515625 33.015625 3.234375 C 32.148438 8.410156 30.046875 13.585938 26.703125 18.765625 C 23.359375 23.941406 19.203125 27.5 14.234375 29.4375 C 9.273438 31.382812 4.097656 30.09375 -1.296875 25.5625 C -7.117188 20.601562 -9.972656 15.375 -9.859375 9.875 C -9.753906 4.375 -7.648438 -1.070312 -3.546875 -6.46875 C 0.546875 -11.863281 5.613281 -17.039062 11.65625 -22 C 9.28125 -24.8125 6.847656 -27.457031 4.359375 -29.9375 C 1.878906 -32.414062 -0.21875 -35.378906 -1.9375 -38.828125 C -3.882812 -42.503906 -4.859375 -46.660156 -4.859375 -51.296875 C -4.859375 -55.929688 -3.613281 -59.8125 -1.125 -62.9375 C 1.351562 -66.070312 5.394531 -67.53125 11 -67.3125 C 13.375 -67.09375 15.640625 -66.066406 17.796875 -64.234375 C 19.953125 -62.398438 21.570312 -60.40625 22.65625 -58.25 C 23.300781 -56.738281 23.566406 -54.957031 23.453125 -52.90625 C 23.347656 -50.863281 22.109375 -49.84375 19.734375 -49.84375 C 16.066406 -50.269531 13.851562 -49.457031 13.09375 -47.40625 C 12.34375 -45.363281 12.34375 -43.046875 13.09375 -40.453125 C 13.851562 -37.859375 14.882812 -35.703125 16.1875 -33.984375 C 16.832031 -33.117188 17.582031 -32.253906 18.4375 -31.390625 C 19.300781 -30.523438 20.0625 -29.660156 20.71875 -28.796875 C 28.914062 -32.679688 36.519531 -35.703125 43.53125 -37.859375 C 50.539062 -40.015625 55.769531 -41.847656 59.21875 -43.359375 Z M 59.21875 -43.359375 "/></g></g></g><g fill="#000000" fill-opacity="1"><g transform="translate(734.936947, 255.089938)"><g><path d="M 181.546875 -40.125 C 183.710938 -42.070312 185.925781 -42.453125 188.1875 -41.265625 C 190.457031 -40.078125 192.019531 -38.40625 192.875 -36.25 C 193.738281 -34.09375 193.203125 -32.148438 191.265625 -30.421875 C 183.492188 -24.160156 175.507812 -18.007812 167.3125 -11.96875 C 159.113281 -5.925781 150.703125 -0.425781 142.078125 4.53125 C 138.835938 6.46875 135.328125 8.351562 131.546875 10.1875 C 127.773438 12.019531 123.945312 12.9375 120.0625 12.9375 C 115.96875 13.15625 112.191406 12.023438 108.734375 9.546875 C 105.285156 7.066406 103.019531 3.773438 101.9375 -0.328125 C 101.289062 -2.046875 101.078125 -3.769531 101.296875 -5.5 C 101.515625 -7.226562 101.835938 -8.953125 102.265625 -10.671875 C 102.265625 -10.671875 102.265625 -10.722656 102.265625 -10.828125 C 102.265625 -10.941406 102.265625 -11 102.265625 -11 C 101.179688 -10.570312 100.425781 -10.25 100 -10.03125 C 98.488281 -9.164062 96.976562 -8.140625 95.46875 -6.953125 C 93.957031 -5.765625 92.445312 -4.632812 90.9375 -3.5625 C 87.914062 -1.40625 84.945312 0.75 82.03125 2.90625 C 79.125 5.070312 76.160156 7.234375 73.140625 9.390625 C 70.765625 10.898438 68.226562 10.898438 65.53125 9.390625 C 62.832031 7.878906 60.617188 5.773438 58.890625 3.078125 C 57.171875 0.378906 56.632812 -2.15625 57.28125 -4.53125 C 57.925781 -7.976562 58.679688 -11.535156 59.546875 -15.203125 C 60.410156 -18.878906 61.273438 -22.550781 62.140625 -26.21875 C 62.347656 -27.082031 62.613281 -28.050781 62.9375 -29.125 C 63.269531 -30.207031 63.539062 -31.285156 63.75 -32.359375 C 62.457031 -31.492188 61.160156 -30.679688 59.859375 -29.921875 C 58.566406 -29.171875 57.382812 -28.472656 56.3125 -27.828125 C 49.1875 -23.941406 42.175781 -19.628906 35.28125 -14.890625 C 29.019531 -10.359375 22.921875 -5.554688 16.984375 -0.484375 C 11.054688 4.585938 5.394531 9.816406 0 15.203125 C -1.9375 16.929688 -4.195312 17.148438 -6.78125 15.859375 C -9.375 14.566406 -11.640625 12.625 -13.578125 10.03125 C -15.523438 7.445312 -16.394531 5.179688 -16.1875 3.234375 C -14.019531 -13.804688 -9.054688 -29.664062 -1.296875 -44.34375 C -0.210938 -46.28125 1.40625 -47.085938 3.5625 -46.765625 C 5.71875 -46.441406 7.875 -45.414062 10.03125 -43.6875 C 12.1875 -41.957031 13.859375 -40.015625 15.046875 -37.859375 C 16.234375 -35.703125 16.394531 -33.757812 15.53125 -32.03125 C 14.019531 -29.226562 12.507812 -26.210938 11 -22.984375 C 18.332031 -28.804688 26.046875 -34.144531 34.140625 -39 C 42.234375 -43.851562 50.488281 -48.222656 58.90625 -52.109375 C 64.289062 -54.472656 69.519531 -54.359375 74.59375 -51.765625 C 79.664062 -49.179688 82.523438 -44.765625 83.171875 -38.515625 C 83.597656 -35.921875 83.488281 -33.222656 82.84375 -30.421875 C 82.195312 -27.617188 81.550781 -24.921875 80.90625 -22.328125 C 83.28125 -24.054688 85.546875 -25.566406 87.703125 -26.859375 C 90.722656 -28.585938 93.90625 -29.828125 97.25 -30.578125 C 100.59375 -31.335938 103.988281 -30.960938 107.4375 -29.453125 C 110.894531 -27.941406 113.863281 -25.566406 116.34375 -22.328125 C 118.820312 -19.085938 120.28125 -15.632812 120.71875 -11.96875 C 120.71875 -10.675781 120.71875 -9.164062 120.71875 -7.4375 C 122.875 -7.875 126.429688 -9.222656 131.390625 -11.484375 C 136.347656 -13.753906 141.898438 -16.453125 148.046875 -19.578125 C 154.203125 -22.703125 160.300781 -26.097656 166.34375 -29.765625 C 172.382812 -33.441406 177.453125 -36.894531 181.546875 -40.125 Z M 181.546875 -40.125 "/></g></g></g><g fill="#000000" fill-opacity="1"><g transform="translate(917.134225, 255.089938)"><g><path d="M 121.359375 -41.421875 C 123.515625 -43.148438 125.832031 -43.421875 128.3125 -42.234375 C 130.789062 -41.046875 132.675781 -39.265625 133.96875 -36.890625 C 135.269531 -34.515625 134.953125 -32.46875 133.015625 -30.75 C 125.460938 -24.0625 117.851562 -17.476562 110.1875 -11 C 102.53125 -4.53125 94.390625 1.1875 85.765625 6.15625 C 81.878906 8.519531 77.613281 10.726562 72.96875 12.78125 C 68.332031 14.832031 63.644531 15.535156 58.90625 14.890625 C 53.9375 14.453125 49.617188 12.507812 45.953125 9.0625 C 42.285156 5.613281 39.695312 1.515625 38.1875 -3.234375 C 37.320312 -6.253906 37 -9.164062 37.21875 -11.96875 C 37.4375 -14.78125 37.972656 -17.476562 38.828125 -20.0625 C 30.203125 -14.457031 22.003906 -8.039062 14.234375 -0.8125 C 6.472656 6.414062 -2.367188 11.972656 -12.296875 15.859375 C -14.453125 16.722656 -16.769531 16.34375 -19.25 14.71875 C -21.738281 13.101562 -23.738281 11 -25.25 8.40625 C -26.757812 5.820312 -27.296875 3.453125 -26.859375 1.296875 C -24.703125 -8.410156 -20.976562 -17.847656 -15.6875 -27.015625 C -10.40625 -36.191406 -3.773438 -43.800781 4.203125 -49.84375 C 10.679688 -54.582031 17.53125 -56.46875 24.75 -55.5 C 31.976562 -54.53125 37.96875 -51.023438 42.71875 -44.984375 C 44.445312 -45.628906 46.171875 -46.273438 47.890625 -46.921875 C 50.046875 -47.359375 52.53125 -46.601562 55.34375 -44.65625 C 57.0625 -43.363281 58.675781 -41.800781 60.1875 -39.96875 C 61.695312 -38.132812 62.5625 -36.351562 62.78125 -34.625 C 63 -33.550781 62.890625 -32.582031 62.453125 -31.71875 C 62.242188 -29.125 61.707031 -26.640625 60.84375 -24.265625 C 59.976562 -21.898438 59.113281 -19.421875 58.25 -16.828125 C 57.382812 -14.453125 56.734375 -12.078125 56.296875 -9.703125 C 55.867188 -7.335938 55.332031 -4.859375 54.6875 -2.265625 C 54.90625 -2.265625 55.066406 -2.265625 55.171875 -2.265625 C 55.285156 -2.265625 55.445312 -2.265625 55.65625 -2.265625 C 60.40625 -2.910156 65.90625 -4.742188 72.15625 -7.765625 C 78.414062 -10.785156 84.726562 -14.398438 91.09375 -18.609375 C 97.457031 -22.816406 103.335938 -26.96875 108.734375 -31.0625 C 114.128906 -35.164062 118.335938 -38.617188 121.359375 -41.421875 Z M 4.53125 -19.734375 C 8.84375 -23.191406 13.046875 -26.59375 17.140625 -29.9375 C 21.242188 -33.28125 25.5625 -36.351562 30.09375 -39.15625 C 29.882812 -39.15625 29.78125 -39.15625 29.78125 -39.15625 C 29.34375 -39.15625 28.800781 -39.097656 28.15625 -38.984375 C 27.507812 -38.878906 26.863281 -38.722656 26.21875 -38.515625 C 24.488281 -38.078125 22.8125 -37.316406 21.1875 -36.234375 C 19.570312 -35.160156 18.117188 -34.085938 16.828125 -33.015625 C 14.453125 -31.066406 12.289062 -29.015625 10.34375 -26.859375 C 8.40625 -24.703125 6.679688 -22.546875 5.171875 -20.390625 C 4.960938 -20.171875 4.859375 -20.003906 4.859375 -19.890625 C 4.859375 -19.785156 4.75 -19.734375 4.53125 -19.734375 Z M 4.53125 -19.734375 "/></g></g></g></svg>