<svg xmlns="http://www.w3.org/2000/svg" xmlns:xlink="http://www.w3.org/1999/xlink" width="500" zoomAndPan="magnify" viewBox="0 0 375 374.999991" height="500" preserveAspectRatio="xMidYMid meet" version="1.0"><defs><g/><clipPath id="1d8e709a13"><path d="M 7.046875 113.378906 L 79 113.378906 L 79 202 L 7.046875 202 Z M 7.046875 113.378906 " clip-rule="nonzero"/></clipPath><clipPath id="adee54e1a2"><path d="M 12 157 L 43 157 L 43 246.128906 L 12 246.128906 Z M 12 157 " clip-rule="nonzero"/></clipPath></defs><g clip-path="url(#1d8e709a13)"><path fill="#7b8bc4" d="M 47.746094 154.714844 C 47.738281 154.707031 47.671875 154.664062 47.550781 154.59375 C 35.449219 147.5 21.988281 139.710938 7.167969 131.21875 C 7.113281 131.1875 7.085938 131.140625 7.085938 131.078125 C 7.085938 131.015625 7.113281 130.96875 7.167969 130.9375 L 37.347656 113.554688 C 37.566406 113.425781 37.785156 113.425781 38.003906 113.554688 L 78.304688 136.789062 C 78.523438 136.917969 78.636719 137.113281 78.636719 137.371094 L 78.664062 184.058594 C 78.664062 184.242188 78.582031 184.382812 78.421875 184.472656 L 48.265625 201.890625 C 48.183594 201.9375 48.105469 201.9375 48.027344 201.890625 C 47.945312 201.84375 47.90625 201.773438 47.902344 201.683594 C 47.855469 186.789062 47.867188 171.359375 47.941406 155.398438 C 47.945312 155.148438 47.878906 154.921875 47.746094 154.714844 Z M 47.746094 154.714844 " fill-opacity="1" fill-rule="nonzero"/></g><g clip-path="url(#adee54e1a2)"><path fill="#7b8bc4" d="M 12 228.480469 L 12.007812 175.597656 C 12.007812 175.5 12.050781 175.425781 12.136719 175.378906 L 42.425781 157.910156 C 42.464844 157.886719 42.507812 157.875 42.550781 157.875 C 42.597656 157.875 42.636719 157.886719 42.675781 157.910156 C 42.714844 157.933594 42.746094 157.964844 42.769531 158.003906 C 42.789062 158.042969 42.800781 158.085938 42.800781 158.128906 L 42.785156 245.964844 C 42.785156 246.007812 42.773438 246.050781 42.753906 246.089844 C 42.730469 246.128906 42.699219 246.160156 42.660156 246.183594 C 42.621094 246.207031 42.582031 246.214844 42.535156 246.21875 C 42.492188 246.21875 42.449219 246.207031 42.410156 246.183594 L 12.128906 228.703125 C 12.042969 228.65625 12 228.582031 12 228.480469 Z M 12 228.480469 " fill-opacity="1" fill-rule="nonzero"/></g><g fill="#737373" fill-opacity="1"><g transform="translate(87.060359, 208.619811)"><g><path d="M 79.171875 -59.625 C 82.503906 -55.707031 84.394531 -51.40625 84.84375 -46.71875 C 85.289062 -42.039062 84.679688 -37.421875 83.015625 -32.859375 C 81.347656 -28.296875 79.046875 -24.144531 76.109375 -20.40625 C 73.671875 -17.382812 70.941406 -14.648438 67.921875 -12.203125 C 64.910156 -9.765625 61.695312 -7.648438 58.28125 -5.859375 C 55.425781 -4.316406 52.285156 -2.929688 48.859375 -1.703125 C 45.441406 -0.484375 42.066406 -0.160156 38.734375 -0.734375 C 35.960938 -1.140625 33.597656 -2.398438 31.640625 -4.515625 C 29.117188 4.679688 27.125 13.960938 25.65625 23.328125 C 25.488281 24.066406 25.054688 24.394531 24.359375 24.3125 C 23.671875 24.226562 22.921875 23.878906 22.109375 23.265625 C 21.296875 22.660156 20.601562 21.929688 20.03125 21.078125 C 19.46875 20.222656 19.222656 19.425781 19.296875 18.6875 C 23.367188 -6.144531 30.703125 -30.007812 41.296875 -52.90625 C 41.617188 -53.71875 42.164062 -54.0625 42.9375 -53.9375 C 43.71875 -53.8125 44.515625 -53.421875 45.328125 -52.765625 C 46.140625 -52.117188 46.789062 -51.390625 47.28125 -50.578125 C 47.769531 -49.765625 47.851562 -49.03125 47.53125 -48.375 C 44.507812 -41.78125 41.738281 -35.019531 39.21875 -28.09375 C 40.28125 -28.914062 41.421875 -29.648438 42.640625 -30.296875 C 43.210938 -30.617188 43.90625 -30.578125 44.71875 -30.171875 C 45.53125 -29.765625 46.257812 -29.15625 46.90625 -28.34375 C 47.5625 -27.53125 47.96875 -26.710938 48.125 -25.890625 C 48.289062 -25.078125 47.96875 -24.429688 47.15625 -23.953125 C 44.550781 -22.566406 42.023438 -20.546875 39.578125 -17.890625 C 37.140625 -15.242188 35.675781 -12.375 35.1875 -9.28125 C 35.019531 -8.300781 35.078125 -7.691406 35.359375 -7.453125 C 35.648438 -7.210938 36.242188 -7.050781 37.140625 -6.96875 C 37.796875 -6.96875 38.46875 -6.988281 39.15625 -7.03125 C 39.84375 -7.070312 40.515625 -7.171875 41.171875 -7.328125 C 42.640625 -7.648438 44.066406 -8.054688 45.453125 -8.546875 C 46.835938 -9.035156 48.179688 -9.566406 49.484375 -10.140625 C 54.691406 -12.421875 59.554688 -15.492188 64.078125 -19.359375 C 68.597656 -23.234375 72.160156 -27.691406 74.765625 -32.734375 C 75.992188 -35.097656 76.953125 -37.644531 77.640625 -40.375 C 78.328125 -43.101562 78.585938 -45.8125 78.421875 -48.5 C 78.265625 -51.1875 77.492188 -53.648438 76.109375 -55.890625 C 74.722656 -58.128906 72.609375 -59.898438 69.765625 -61.203125 C 66.015625 -62.992188 62.0625 -63.785156 57.90625 -63.578125 C 53.75 -63.378906 49.632812 -62.609375 45.5625 -61.265625 C 41.5 -59.921875 37.710938 -58.476562 34.203125 -56.9375 C 31.515625 -55.707031 28.945312 -54.335938 26.5 -52.828125 C 24.0625 -51.328125 21.703125 -49.640625 19.421875 -47.765625 C 17.140625 -45.816406 15.144531 -43.78125 13.4375 -41.65625 C 13.03125 -41.164062 12.625 -40.632812 12.21875 -40.0625 C 11.8125 -39.5 11.40625 -38.929688 11 -38.359375 C 10.914062 -38.117188 10.628906 -37.585938 10.140625 -36.765625 C 9.648438 -35.953125 9.445312 -35.507812 9.53125 -35.4375 C 10.425781 -33.96875 10.609375 -32.925781 10.078125 -32.3125 C 9.546875 -31.695312 8.726562 -31.507812 7.625 -31.75 C 6.53125 -32 5.617188 -32.695312 4.890625 -33.84375 C 3.421875 -36.28125 3.09375 -38.679688 3.90625 -41.046875 C 4.71875 -43.410156 6.0625 -45.628906 7.9375 -47.703125 C 9.8125 -49.785156 11.601562 -51.597656 13.3125 -53.140625 C 16.65625 -55.992188 20.257812 -58.4375 24.125 -60.46875 C 28 -62.507812 31.929688 -64.300781 35.921875 -65.84375 C 40.804688 -67.632812 45.875 -68.835938 51.125 -69.453125 C 56.382812 -70.066406 61.457031 -69.660156 66.34375 -68.234375 C 71.226562 -66.804688 75.503906 -63.9375 79.171875 -59.625 Z M 79.171875 -59.625 "/></g></g></g><g fill="#737373" fill-opacity="1"><g transform="translate(175.632153, 208.619811)"><g><path d="M 22.609375 -16 C 23.015625 -15.351562 23.15625 -14.679688 23.03125 -13.984375 C 22.90625 -13.296875 22.394531 -12.910156 21.5 -12.828125 C 20.851562 -12.828125 20.242188 -13.007812 19.671875 -13.375 C 19.097656 -13.738281 18.566406 -14.207031 18.078125 -14.78125 C 17.265625 -14.78125 16.164062 -14.289062 14.78125 -13.3125 C 13.394531 -12.332031 12.457031 -11.679688 11.96875 -11.359375 C 11.070312 -10.710938 10.21875 -10 9.40625 -9.21875 C 8.59375 -8.445312 7.78125 -7.65625 6.96875 -6.84375 C 3.457031 -3.09375 0.6875 0.976562 -1.34375 5.375 C -1.832031 6.4375 -2.644531 6.722656 -3.78125 6.234375 C -4.925781 5.742188 -5.925781 4.925781 -6.78125 3.78125 C -7.632812 2.644531 -7.898438 1.671875 -7.578125 0.859375 C -6.273438 -2.804688 -4.910156 -6.410156 -3.484375 -9.953125 C -2.054688 -13.492188 -0.691406 -17.097656 0.609375 -20.765625 C 0.929688 -21.578125 1.539062 -21.878906 2.4375 -21.671875 C 3.332031 -21.472656 4.226562 -20.96875 5.125 -20.15625 C 6.019531 -19.34375 6.632812 -18.488281 6.96875 -17.59375 C 9.738281 -19.707031 12.523438 -20.863281 15.328125 -21.0625 C 18.140625 -21.269531 20.566406 -19.582031 22.609375 -16 Z M 22.609375 -16 "/></g></g></g><g fill="#737373" fill-opacity="1"><g transform="translate(205.318973, 208.619811)"><g><path d="M 23.09375 -15.15625 C 23.820312 -15.800781 24.65625 -15.941406 25.59375 -15.578125 C 26.53125 -15.210938 27.203125 -14.601562 27.609375 -13.75 C 28.015625 -12.894531 27.851562 -12.140625 27.125 -11.484375 C 25.164062 -9.859375 23.144531 -8.25 21.0625 -6.65625 C 18.988281 -5.070312 16.894531 -3.546875 14.78125 -2.078125 C 12.988281 -0.929688 11.113281 0.25 9.15625 1.46875 C 7.207031 2.6875 5.210938 3.539062 3.171875 4.03125 C 1.546875 4.269531 0.0195312 4.023438 -1.40625 3.296875 C -2.832031 2.566406 -3.992188 1.53125 -4.890625 0.1875 C -5.785156 -1.15625 -6.234375 -2.644531 -6.234375 -4.28125 C -6.316406 -6.96875 -5.582031 -9.753906 -4.03125 -12.640625 C -2.476562 -15.535156 -1.050781 -18.125 0.25 -20.40625 C 0.738281 -21.132812 1.390625 -21.414062 2.203125 -21.25 C 3.015625 -21.09375 3.828125 -20.6875 4.640625 -20.03125 C 5.453125 -19.382812 6.0625 -18.648438 6.46875 -17.828125 C 6.882812 -17.015625 6.925781 -16.328125 6.59375 -15.765625 C 5.539062 -13.972656 4.566406 -12.160156 3.671875 -10.328125 C 2.773438 -8.492188 1.957031 -6.640625 1.21875 -4.765625 C 1.0625 -4.273438 0.859375 -3.742188 0.609375 -3.171875 C 2.316406 -3.421875 4.554688 -4.195312 7.328125 -5.5 C 10.097656 -6.800781 12.925781 -8.328125 15.8125 -10.078125 C 18.707031 -11.828125 21.132812 -13.519531 23.09375 -15.15625 Z M 12.09375 -27.859375 C 11.601562 -26.878906 10.765625 -26.632812 9.578125 -27.125 C 8.398438 -27.613281 7.363281 -28.40625 6.46875 -29.5 C 5.570312 -30.601562 5.328125 -31.601562 5.734375 -32.5 C 6.472656 -33.96875 7.003906 -35.046875 7.328125 -35.734375 C 7.648438 -36.429688 7.8125 -36.78125 7.8125 -36.78125 C 8.300781 -37.507812 8.953125 -37.8125 9.765625 -37.6875 C 10.585938 -37.5625 11.382812 -37.171875 12.15625 -36.515625 C 12.925781 -35.867188 13.535156 -35.140625 13.984375 -34.328125 C 14.429688 -33.515625 14.492188 -32.78125 14.171875 -32.125 C 14.171875 -32.125 14.046875 -31.859375 13.796875 -31.328125 C 13.554688 -30.804688 12.988281 -29.648438 12.09375 -27.859375 Z M 12.09375 -27.859375 "/></g></g></g><g fill="#737373" fill-opacity="1"><g transform="translate(229.263902, 208.619811)"><g><path d="M 22.359375 -16.375 C 23.335938 -16.695312 24.171875 -16.507812 24.859375 -15.8125 C 25.554688 -15.125 25.941406 -14.289062 26.015625 -13.3125 C 26.097656 -12.332031 25.613281 -11.640625 24.5625 -11.234375 C 19.914062 -9.441406 15.71875 -7.082031 11.96875 -4.15625 C 12.539062 -2.363281 12.707031 -0.570312 12.46875 1.21875 C 12.132812 3.175781 11.335938 5.128906 10.078125 7.078125 C 8.816406 9.035156 7.25 10.378906 5.375 11.109375 C 3.5 11.847656 1.546875 11.363281 -0.484375 9.65625 C -2.679688 7.78125 -3.757812 5.800781 -3.71875 3.71875 C -3.6875 1.644531 -2.894531 -0.40625 -1.34375 -2.4375 C 0.207031 -4.476562 2.117188 -6.4375 4.390625 -8.3125 C 3.492188 -9.363281 2.578125 -10.359375 1.640625 -11.296875 C 0.710938 -12.234375 -0.078125 -13.351562 -0.734375 -14.65625 C -1.460938 -16.039062 -1.828125 -17.609375 -1.828125 -19.359375 C -1.828125 -21.109375 -1.359375 -22.570312 -0.421875 -23.75 C 0.515625 -24.9375 2.039062 -25.488281 4.15625 -25.40625 C 5.050781 -25.332031 5.90625 -24.945312 6.71875 -24.25 C 7.53125 -23.5625 8.140625 -22.804688 8.546875 -21.984375 C 8.796875 -21.421875 8.898438 -20.75 8.859375 -19.96875 C 8.816406 -19.195312 8.347656 -18.8125 7.453125 -18.8125 C 6.066406 -18.976562 5.226562 -18.671875 4.9375 -17.890625 C 4.65625 -17.117188 4.65625 -16.242188 4.9375 -15.265625 C 5.226562 -14.296875 5.617188 -13.484375 6.109375 -12.828125 C 6.347656 -12.503906 6.628906 -12.175781 6.953125 -11.84375 C 7.285156 -11.519531 7.570312 -11.195312 7.8125 -10.875 C 10.914062 -12.34375 13.789062 -13.484375 16.4375 -14.296875 C 19.082031 -15.109375 21.054688 -15.800781 22.359375 -16.375 Z M 22.359375 -16.375 "/></g></g></g><g fill="#737373" fill-opacity="1"><g transform="translate(252.597992, 208.619811)"><g><path d="M 68.53125 -15.15625 C 69.351562 -15.882812 70.191406 -16.023438 71.046875 -15.578125 C 71.898438 -15.128906 72.488281 -14.5 72.8125 -13.6875 C 73.132812 -12.875 72.929688 -12.140625 72.203125 -11.484375 C 69.273438 -9.117188 66.257812 -6.796875 63.15625 -4.515625 C 60.0625 -2.234375 56.890625 -0.160156 53.640625 1.703125 C 52.410156 2.441406 51.082031 3.15625 49.65625 3.84375 C 48.238281 4.539062 46.796875 4.890625 45.328125 4.890625 C 43.773438 4.972656 42.347656 4.546875 41.046875 3.609375 C 39.742188 2.671875 38.890625 1.425781 38.484375 -0.125 C 38.242188 -0.769531 38.160156 -1.414062 38.234375 -2.0625 C 38.316406 -2.71875 38.441406 -3.375 38.609375 -4.03125 C 38.609375 -4.03125 38.609375 -4.050781 38.609375 -4.09375 C 38.609375 -4.132812 38.609375 -4.15625 38.609375 -4.15625 C 38.203125 -3.988281 37.914062 -3.863281 37.75 -3.78125 C 37.175781 -3.457031 36.601562 -3.070312 36.03125 -2.625 C 35.46875 -2.175781 34.898438 -1.75 34.328125 -1.34375 C 33.191406 -0.53125 32.070312 0.28125 30.96875 1.09375 C 29.875 1.914062 28.753906 2.734375 27.609375 3.546875 C 26.710938 4.109375 25.753906 4.101562 24.734375 3.53125 C 23.722656 2.96875 22.890625 2.175781 22.234375 1.15625 C 21.585938 0.144531 21.382812 -0.804688 21.625 -1.703125 C 21.863281 -3.015625 22.144531 -4.359375 22.46875 -5.734375 C 22.800781 -7.117188 23.128906 -8.503906 23.453125 -9.890625 C 23.535156 -10.222656 23.640625 -10.59375 23.765625 -11 C 23.890625 -11.40625 23.988281 -11.8125 24.0625 -12.21875 C 23.570312 -11.894531 23.082031 -11.585938 22.59375 -11.296875 C 22.113281 -11.015625 21.671875 -10.75 21.265625 -10.5 C 18.566406 -9.039062 15.914062 -7.414062 13.3125 -5.625 C 10.957031 -3.90625 8.65625 -2.085938 6.40625 -0.171875 C 4.164062 1.734375 2.03125 3.703125 0 5.734375 C -0.726562 6.390625 -1.582031 6.472656 -2.5625 5.984375 C -3.539062 5.492188 -4.394531 4.757812 -5.125 3.78125 C -5.863281 2.8125 -6.191406 1.957031 -6.109375 1.21875 C -5.296875 -5.21875 -3.421875 -11.203125 -0.484375 -16.734375 C -0.078125 -17.472656 0.53125 -17.78125 1.34375 -17.65625 C 2.15625 -17.53125 2.96875 -17.140625 3.78125 -16.484375 C 4.601562 -15.835938 5.238281 -15.109375 5.6875 -14.296875 C 6.132812 -13.484375 6.191406 -12.75 5.859375 -12.09375 C 5.296875 -11.03125 4.726562 -9.890625 4.15625 -8.671875 C 6.925781 -10.867188 9.835938 -12.882812 12.890625 -14.71875 C 15.941406 -16.550781 19.054688 -18.203125 22.234375 -19.671875 C 24.273438 -20.566406 26.25 -20.523438 28.15625 -19.546875 C 30.070312 -18.566406 31.148438 -16.894531 31.390625 -14.53125 C 31.554688 -13.5625 31.515625 -12.546875 31.265625 -11.484375 C 31.023438 -10.421875 30.785156 -9.40625 30.546875 -8.4375 C 31.441406 -9.082031 32.296875 -9.648438 33.109375 -10.140625 C 34.242188 -10.796875 35.441406 -11.265625 36.703125 -11.546875 C 37.972656 -11.828125 39.257812 -11.6875 40.5625 -11.125 C 41.863281 -10.550781 42.984375 -9.648438 43.921875 -8.421875 C 44.859375 -7.203125 45.40625 -5.898438 45.5625 -4.515625 C 45.5625 -4.023438 45.5625 -3.457031 45.5625 -2.8125 C 46.382812 -2.96875 47.726562 -3.472656 49.59375 -4.328125 C 51.46875 -5.191406 53.566406 -6.210938 55.890625 -7.390625 C 58.210938 -8.566406 60.515625 -9.847656 62.796875 -11.234375 C 65.078125 -12.617188 66.988281 -13.925781 68.53125 -15.15625 Z M 68.53125 -15.15625 "/></g></g></g><g fill="#737373" fill-opacity="1"><g transform="translate(321.378581, 208.619811)"><g><path d="M 45.8125 -15.640625 C 46.625 -16.285156 47.5 -16.382812 48.4375 -15.9375 C 49.375 -15.488281 50.085938 -14.816406 50.578125 -13.921875 C 51.066406 -13.023438 50.945312 -12.253906 50.21875 -11.609375 C 47.363281 -9.078125 44.488281 -6.585938 41.59375 -4.140625 C 38.707031 -1.703125 35.632812 0.453125 32.375 2.328125 C 30.90625 3.222656 29.296875 4.054688 27.546875 4.828125 C 25.796875 5.597656 24.023438 5.863281 22.234375 5.625 C 20.359375 5.457031 18.726562 4.722656 17.34375 3.421875 C 15.957031 2.117188 14.984375 0.570312 14.421875 -1.21875 C 14.085938 -2.363281 13.960938 -3.460938 14.046875 -4.515625 C 14.128906 -5.578125 14.332031 -6.597656 14.65625 -7.578125 C 11.40625 -5.453125 8.3125 -3.023438 5.375 -0.296875 C 2.445312 2.421875 -0.890625 4.515625 -4.640625 5.984375 C -5.453125 6.304688 -6.328125 6.160156 -7.265625 5.546875 C -8.203125 4.941406 -8.957031 4.148438 -9.53125 3.171875 C -10.101562 2.191406 -10.304688 1.296875 -10.140625 0.484375 C -9.328125 -3.179688 -7.921875 -6.742188 -5.921875 -10.203125 C -3.929688 -13.660156 -1.425781 -16.53125 1.59375 -18.8125 C 4.03125 -20.601562 6.613281 -21.316406 9.34375 -20.953125 C 12.070312 -20.585938 14.332031 -19.265625 16.125 -16.984375 C 16.78125 -17.222656 17.429688 -17.46875 18.078125 -17.71875 C 18.890625 -17.875 19.828125 -17.585938 20.890625 -16.859375 C 21.546875 -16.367188 22.15625 -15.773438 22.71875 -15.078125 C 23.289062 -14.390625 23.617188 -13.722656 23.703125 -13.078125 C 23.785156 -12.671875 23.742188 -12.300781 23.578125 -11.96875 C 23.492188 -10.988281 23.289062 -10.050781 22.96875 -9.15625 C 22.644531 -8.257812 22.316406 -7.328125 21.984375 -6.359375 C 21.660156 -5.460938 21.414062 -4.566406 21.25 -3.671875 C 21.09375 -2.773438 20.890625 -1.835938 20.640625 -0.859375 C 20.722656 -0.859375 20.785156 -0.859375 20.828125 -0.859375 C 20.867188 -0.859375 20.929688 -0.859375 21.015625 -0.859375 C 22.804688 -1.097656 24.878906 -1.785156 27.234375 -2.921875 C 29.597656 -4.066406 31.984375 -5.429688 34.390625 -7.015625 C 36.796875 -8.609375 39.015625 -10.175781 41.046875 -11.71875 C 43.085938 -13.269531 44.675781 -14.578125 45.8125 -15.640625 Z M 1.703125 -7.453125 C 3.335938 -8.753906 4.925781 -10.035156 6.46875 -11.296875 C 8.019531 -12.554688 9.648438 -13.71875 11.359375 -14.78125 C 11.273438 -14.78125 11.234375 -14.78125 11.234375 -14.78125 C 11.078125 -14.78125 10.875 -14.757812 10.625 -14.71875 C 10.382812 -14.675781 10.140625 -14.613281 9.890625 -14.53125 C 9.242188 -14.375 8.613281 -14.09375 8 -13.6875 C 7.394531 -13.28125 6.847656 -12.875 6.359375 -12.46875 C 5.460938 -11.726562 4.644531 -10.953125 3.90625 -10.140625 C 3.175781 -9.328125 2.523438 -8.515625 1.953125 -7.703125 C 1.867188 -7.617188 1.828125 -7.554688 1.828125 -7.515625 C 1.828125 -7.472656 1.785156 -7.453125 1.703125 -7.453125 Z M 1.703125 -7.453125 "/></g></g></g></svg>